<?xml version="1.0" encoding="UTF-8"?>
<svg width="235px" height="235px" viewBox="0 0 235 235" version="1.1" xmlns="http://www.w3.org/2000/svg" xmlns:xlink="http://www.w3.org/1999/xlink">
    <!-- Generator: Sketch 42 (36781) - http://www.bohemiancoding.com/sketch -->
    <title>Kanye</title>
    <desc>Created with Sketch.</desc>
    <defs>
        <linearGradient x1="100%" y1="50%" x2="0%" y2="50%" id="linearGradient-1">
            <stop stop-color="#FCB69F" offset="0%"></stop>
            <stop stop-color="#FFECD2" offset="100%"></stop>
        </linearGradient>
        <circle id="path-2" cx="117.5" cy="117.5" r="117.5"></circle>
        <filter x="-50%" y="-50%" width="200%" height="200%" filterUnits="objectBoundingBox" id="filter-4">
            <feOffset dx="-7" dy="1" in="SourceAlpha" result="shadowOffsetOuter1"></feOffset>
            <feColorMatrix values="0 0 0 0 0   0 0 0 0 0   0 0 0 0 0  0 0 0 0.184810915 0" type="matrix" in="shadowOffsetOuter1" result="shadowMatrixOuter1"></feColorMatrix>
            <feMerge>
                <feMergeNode in="shadowMatrixOuter1"></feMergeNode>
                <feMergeNode in="SourceGraphic"></feMergeNode>
            </feMerge>
        </filter>
        <filter x="-50%" y="-50%" width="200%" height="200%" filterUnits="objectBoundingBox" id="filter-5">
            <feOffset dx="-10" dy="1" in="SourceAlpha" result="shadowOffsetOuter1"></feOffset>
            <feColorMatrix values="0 0 0 0 0   0 0 0 0 0   0 0 0 0 0  0 0 0 0.1796875 0" type="matrix" in="shadowOffsetOuter1" result="shadowMatrixOuter1"></feColorMatrix>
            <feMerge>
                <feMergeNode in="shadowMatrixOuter1"></feMergeNode>
                <feMergeNode in="SourceGraphic"></feMergeNode>
            </feMerge>
        </filter>
        <path d="M0,8.05395212 C0,3.60587719 3.60657179,0 8.03927084,0 L74.0497703,0 C78.4897369,0 82.0890411,3.59922499 82.0890411,8.05395212 L82.0890411,48.6115851 C82.0890411,50.0328051 80.9286046,51.1849315 79.5195276,51.1849315 L2.25968522,51.1849315 C1.01169553,51.1849315 0,50.1854437 0,48.9361279 L0,8.05395212 Z" id="path-6"></path>
    </defs>
    <g id="Page-1" stroke="none" stroke-width="1" fill="none" fill-rule="evenodd">
        <g id="Landing" transform="translate(-70.000000, -102.000000)">
            <g transform="translate(70.000000, 102.000000)" id="Kanye">
                <g>
                    <mask id="mask-3" fill="white">
                        <use xlink:href="#path-2"></use>
                    </mask>
                    <use id="Mask" fill="url(#linearGradient-1)" xlink:href="#path-2"></use>
                    <g filter="url(#filter-4)" mask="url(#mask-3)">
                        <g transform="translate(97.863014, 23.178082)">
                            <g id="Body" transform="translate(10.925695, 114.566637)">
                                <path d="M0,33.4402475 C0,24.5476834 6.72165118,14.743037 15.0127317,11.5411485 L44.8977792,0 L74.4227996,9.19351091 C82.9129398,11.8371737 89.7955583,21.1966234 89.7955583,30.0780581 L89.7955583,104.022662 L0,104.022662 L0,33.4402475 Z" id="body" fill="#4A4A4A"></path>
                                <rect id="tshirt-tag" fill="#FFFFFF" x="15.0228311" y="38.1888789" width="17.0713989" height="5.114582" rx="2.557291"></rect>
                                <g id="Arms" transform="translate(0.000000, 53.873597)" fill="#A86551">
                                    <rect id="Arm-" x="0" y="0" width="13.3156912" height="50.1229036"></rect>
                                    <rect id="Arm" x="76.4798672" y="0" width="13.3156912" height="50.1229036"></rect>
                                </g>
                                <g id="Chain" transform="translate(24.924242, 7.842359)" stroke="#FFC76A" stroke-width="3.21917808" stroke-linecap="square">
                                    <path d="M-1.82989088e-14,19.2489977 C-1.82989088e-14,19.2489977 7.92364609,0.246512224 20.6492037,0.246512224 C33.3747613,0.246512224 40.2534751,17.7906492 40.2534751,17.7906492" id="Line" transform="translate(20.126738, 9.747755) scale(-1, -1) translate(-20.126738, -9.747755) "></path>
                                </g>
                            </g>
                            <g id="Head" transform="translate(0.000000, 0.000000)">
                                <path d="M47.458489,99.0700176 C47.458489,97.6479375 48.6108995,96.4951137 50.0372272,96.4951137 L61.2682937,96.4951137 C62.6924915,96.4951137 63.847032,97.655498 63.847032,99.0700176 L63.847032,116.083398 C63.847032,117.505479 62.9552164,119.379172 61.7788248,120.195113 C61.7788248,120.195113 59.822426,122.307022 55.6527605,122.307022 C51.6281545,122.307022 49.5413231,120.17399 49.5413231,120.17399 C48.3910056,119.336899 47.458489,117.497918 47.458489,116.083398 L47.458489,99.0700176 Z" id="neck" fill="#8E554E"></path>
                                <path d="M55.9941885,103.655529 C78.9991753,103.655529 97.6484018,89.3680205 97.6484018,60.7707311 C97.6484018,32.1734417 78.9991753,8.99075814 55.9941885,8.99075814 C32.9892017,8.99075814 14.3399751,32.1734417 14.3399751,60.7707311 C14.3399751,89.3680205 32.9892017,103.655529 55.9941885,103.655529 Z" id="head" fill="#A86551"></path>
                                <g id="Ears" transform="translate(0.000000, 48.418043)" fill="#A86551">
                                    <ellipse id="ear" cx="9.90141137" cy="9.88819187" rx="9.90141137" ry="9.88819187"></ellipse>
                                    <ellipse id="ear" cx="102.769822" cy="10.229164" rx="9.90141137" ry="9.88819187"></ellipse>
                                </g>
                                <path d="M57.2461587,94.9570958 C65.128759,94.9570958 71.518869,88.5755172 71.518869,80.7034412 C71.3573827,80.1769013 64.3493784,80.7034412 57.3823196,80.7034412 C51.9942118,80.7034412 45.4896962,80.5172067 43.02018,80.7034412 C42.9734485,88.5755172 49.3635585,94.9570958 57.2461587,94.9570958 Z" id="Smile" fill="#FFFFFF"></path>
                                <g id="Cheeks" transform="translate(27.655666, 67.853455)" fill="#C76D6C">
                                    <ellipse id="Oval-5" cx="6.3164176" cy="6.30798447" rx="6.3164176" ry="6.30798447"></ellipse>
                                    <ellipse id="Oval-5" cx="54.7991905" cy="6.98992873" rx="6.3164176" ry="6.30798447"></ellipse>
                                </g>
                                <g id="Nose" transform="translate(52.921337, 62.397900)" fill="#753028">
                                    <rect id="Rectangle-4" x="0" y="0" width="6.14570361" height="12.2749968" rx="2.57534247"></rect>
                                    <rect id="Rectangle-4" transform="translate(6.487132, 9.547220) rotate(-270.000000) translate(-6.487132, -9.547220) " x="3.41427978" y="3.40972133" width="6.14570361" height="12.2749968" rx="2.57534247"></rect>
                                </g>
                                <g id="Eyes" transform="translate(35.508510, 55.578458)" stroke="#181845" stroke-width="4.18493151" stroke-linecap="square">
                                    <path d="M0,4.38078533 C0,4.38078533 1.92646162,1.70227706e-15 5.10404375,0 C8.28162587,-1.45909462e-15 9.99924631,4.38078533 9.99924631,4.38078533" id="Line"></path>
                                    <path d="M33.8013699,4.38078533 C33.8013699,4.38078533 35.7278315,1.70227706e-15 38.9054136,0 C42.0829957,-1.45909462e-15 43.8006162,4.38078533 43.8006162,4.38078533" id="Line-Copy"></path>
                                </g>
                                <g id="Hair" transform="translate(12.974263, 0.000000)">
                                    <path d="M86.509538,13.463233 L86.7227065,13.463233 L86.7227065,36.8835412 L0,36.8835412 L0,13.463233 L0.213168528,13.463233 C0.0731252387,12.7994814 0,12.1157631 0,11.4174002 C0,5.1117442 5.961638,0 13.3156912,0 C16.4843592,0 19.3945224,0.949006252 21.6806766,2.53362106 C23.9668308,0.949006252 26.876994,0 30.0456621,0 C32.4710296,0 34.7449468,0.555994771 36.7035077,1.52744487 C38.6620685,0.555994771 40.9359857,0 43.3613533,0 C45.7867208,0 48.060638,0.555994771 50.0191988,1.52744487 C51.9777597,0.555994771 54.2516769,0 56.6770444,0 C59.8457125,0 62.7558757,0.949006252 65.0420299,2.53362106 C67.3281841,0.949006252 70.2383473,0 73.4070154,0 C80.7610685,0 86.7227065,5.1117442 86.7227065,11.4174002 C86.7227065,12.1157631 86.6495813,12.7994814 86.509538,13.463233 Z" id="Combined-Shape" fill="#FFE6B1"></path>
                                    <rect id="Rectangle-2" fill="#FFE5B1" x="0" y="19.6110639" width="6.48713159" height="40.4000316" rx="2.57534247"></rect>
                                    <rect id="Rectangle-2" fill="#FFE5B1" x="80.5770029" y="19.6110639" width="6.48713159" height="40.4000316" rx="2.57534247"></rect>
                                </g>
                            </g>
                        </g>
                    </g>
                    <g id="Dog---Chracter" filter="url(#filter-5)" mask="url(#mask-3)">
                        <g transform="translate(38.952055, 117.178082)" id="Dog">
                            <g>
                                <g id="Right-Ear" transform="translate(70.821918, 33.157534) scale(-1, 1) translate(-70.821918, -33.157534) translate(50.863014, 1.609589)">
                                    <polygon id="Triangle" fill="#FFBE83" points="18.8321918 6.33646016 39.7224567 37.0235228 0.321917808 43.3570081"></polygon>
                                    <path d="M0,8.10110805 C0,6.67983639 0.823395938,4.71833622 1.83924025,3.71984314 L2.76746171,2.80747626 C6.5727437,-0.932809227 12.7397911,-0.935299609 16.5476068,2.80747626 L17.4758282,3.71984314 C18.4916126,4.71827727 19.3150685,6.67228464 19.3150685,8.10110805 L19.3150685,60.2555979 C19.3150685,61.6768696 18.1646665,62.8290379 16.7301944,62.8290379 L2.58487413,62.8290379 C1.15728757,62.8290379 0,61.6844213 0,60.2555979 L0,8.10110805 Z" id="Rectangle-3" fill="#FFFFFF"></path>
                                </g>
                                <g id="Left-Ear" transform="translate(0.965753, 0.000000)">
                                    <polygon id="Triangle" fill="#FFBE83" points="18.8321918 6.33646016 39.7224567 37.0235228 0.321917808 43.3570081"></polygon>
                                    <path d="M0,8.10110805 C0,6.67983639 0.823395938,4.71833622 1.83924025,3.71984314 L2.76746171,2.80747626 C6.5727437,-0.932809227 12.7397911,-0.935299609 16.5476068,2.80747626 L17.4758282,3.71984314 C18.4916126,4.71827727 19.3150685,6.67228464 19.3150685,8.10110805 L19.3150685,60.2555979 C19.3150685,61.6768696 18.1646665,62.8290379 16.7301944,62.8290379 L2.58487413,62.8290379 C1.15728757,62.8290379 0,61.6844213 0,60.2555979 L0,8.10110805 Z" id="Rectangle-3" fill="#FFFFFF"></path>
                                </g>
                                <path d="M0,45.0624529 C0,36.176274 7.19919989,28.9726027 16.086021,28.9726027 L75.6605543,28.9726027 C84.5446184,28.9726027 91.7465753,36.1749305 91.7465753,45.0624529 L91.7465753,80.478942 C91.7465753,93.8134959 80.9296827,104.623288 67.6112562,104.623288 L24.1353192,104.623288 C10.8057505,104.623288 0,93.8044955 0,80.478942 L0,45.0624529 Z" id="head" fill="#FFBE83"></path>
                                <g id="Collar" transform="translate(4.506849, 85.308219)">
                                    <mask id="mask-7" fill="white">
                                        <use xlink:href="#path-6"></use>
                                    </mask>
                                    <use id="Mask" fill="#FFBE83" xlink:href="#path-6"></use>
                                    <ellipse id="Stomach" fill="#FFFFFF" mask="url(#mask-7)" cx="41.3664384" cy="43.4589041" rx="21.7294521" ry="24.4657534"></ellipse>
                                    <g mask="url(#mask-7)" stroke-linecap="square" stroke="#A86551" id="Line" stroke-width="7.08219178">
                                        <g transform="translate(-32.513699, 5.472603)">
                                            <path></path>
                                            <path d="M0.0708223108,10.3335616 L44.2862352,-8.8817842e-16" transform="translate(22.178529, 5.166781) scale(-1, 1) translate(-22.178529, -5.166781) "></path>
                                            <path d="M105.267123,10.4494493 L156.564718,0.321917808"></path>
                                        </g>
                                    </g>
                                </g>
                                <g id="medal" transform="translate(38.308219, 103.657534)">
                                    <circle id="Oval" fill="#FFB200" cx="7.40410959" cy="12.8767123" r="7.40410959"></circle>
                                    <rect id="Rectangle-2" fill="#010737" x="4.82876712" y="0" width="5.15068493" height="11.2671233" rx="2.57534247"></rect>
                                </g>
                                <g id="mouth" transform="translate(31.226027, 84.342466)">
                                    <path d="M0,6.78500559 C0,3.05140937 3.03007582,0.0247316169 6.76820687,0.0247316169 L23.8139849,0.0247316169 C27.5519623,0.0247316169 30.5821918,3.05900649 30.5821918,6.78500559 L30.5821918,13.5452796 L0,13.5452796 L0,6.78500559 Z" id="Rectangle-6" fill="#FFC7D3"></path>
                                    <g id="Spit" transform="translate(15.130137, 10.140411) scale(-1, 1) translate(-15.130137, -10.140411) translate(8.369863, 0.643836)" fill="#2CCBF3">
                                        <rect id="Rectangle-5" x="0" y="3.74107513" width="4.89041096" height="15.2520756" rx="2.44520548"></rect>
                                        <rect id="Rectangle-5" x="8.63013699" y="3.74107513" width="4.89041096" height="10.9354504" rx="2.44520548"></rect>
                                        <path d="M4.31506849,13.0694975 C1.79005617,12.0891305 0,9.63504205 0,6.76271274 C0,3.02776963 3.02667775,-1.59872116e-14 6.76027397,-1.59872116e-14 C10.4938702,-1.59872116e-14 13.5205479,3.02776963 13.5205479,6.76271274 C13.5205479,9.63504205 11.7304918,12.0891305 9.20547945,13.0694975 L9.20547945,10.5082101 C9.20547945,9.15459195 8.11072367,8.05770029 6.76027397,8.05770029 C5.40040919,8.05770029 4.31506849,9.1548309 4.31506849,10.5082101 L4.31506849,13.0694975 Z" id="Combined-Shape"></path>
                                    </g>
                                    <path d="M7.40410959,2.59966796 C7.40410959,1.17756989 8.56608571,0.0247316169 9.98350452,0.0247316169 L19.6329338,0.0247316169 C21.0574943,0.0247316169 22.2123288,1.17748593 22.2123288,2.59966796 L22.2123288,6.78500559 C22.2123288,10.5186018 19.1799312,13.5452796 15.4582263,13.5452796 L14.1582121,13.5452796 C10.4280243,13.5452796 7.40410959,10.5110047 7.40410959,6.78500559 L7.40410959,2.59966796 Z" id="tongue" fill="#F74169"></path>
                                </g>
                                <g id="forehead" transform="translate(13.198630, 32.513699)"></g>
                                <g id="eyes" transform="translate(15.130137, 50.219178)" fill="#181845">
                                    <circle id="eye" cx="54.4041096" cy="6.76027397" r="6.76027397"></circle>
                                    <circle id="eye" cx="6.76027397" cy="6.76027397" r="6.76027397"></circle>
                                </g>
                                <path d="M45.7123288,78.2699683 C50.1570862,78.2699683 53.760274,74.6667805 53.760274,70.2220231 C53.760274,65.7772657 50.1570862,69.0802243 45.7123288,69.0802243 C41.2675714,69.0802243 37.6643836,65.7772657 37.6643836,70.2220231 C37.6643836,74.6667805 41.2675714,78.2699683 45.7123288,78.2699683 Z" id="nose" fill="#181845" transform="translate(45.712329, 73.084947) scale(1, -1) translate(-45.712329, -73.084947) "></path>
                                <g id="right-cheek" transform="translate(70.017123, 77.099315) scale(-1, 1) translate(-70.017123, -77.099315) translate(62.130137, 68.890411)" fill="#FFE2E9">
                                    <circle id="Oval-4" cx="12.2328767" cy="8.69178082" r="3.54109589"></circle>
                                    <circle id="Oval-4-Copy" cx="3.54109589" cy="3.54109589" r="3.54109589"></circle>
                                    <circle id="Oval-4-Copy-2" cx="3.54109589" cy="12.8767123" r="3.54109589"></circle>
                                </g>
                                <g id="left-cheek" transform="translate(11.910959, 68.890411)" fill="#FFE2E9">
                                    <circle id="Oval-4" cx="12.2328767" cy="8.69178082" r="3.54109589"></circle>
                                    <circle id="Oval-4-Copy" cx="3.54109589" cy="3.54109589" r="3.54109589"></circle>
                                    <circle id="Oval-4-Copy-2" cx="3.54109589" cy="12.8767123" r="3.54109589"></circle>
                                </g>
                            </g>
                        </g>
                    </g>
                </g>
            </g>
        </g>
    </g>
</svg>